<!DOCTYPE HTML PUBLIC "-//W3C//DTD HTML 4.01 Transitional//EN">
<HTML>
 <HEAD>
   <TITLE> [Linux-uvc-devel] Trouble recording from two webcams
   </TITLE>
   <LINK REL="Index" HREF="http://lists.berlios.de/pipermail/linux-uvc-devel/2006-November/index.html" >
   <LINK REL="made" HREF="mailto:linux-uvc-devel%40lists.berlios.de?Subject=Re%3A%20%5BLinux-uvc-devel%5D%20Trouble%20recording%20from%20two%20webcams&In-Reply-To=%3Cop.tiy7enbr42iof8%40misha%3E">
   <META NAME="robots" CONTENT="index,nofollow">
   <style type="text/css">
       pre {
           white-space: pre-wrap;       /* css-2.1, curent FF, Opera, Safari */
           }
   </style>
   <META http-equiv="Content-Type" content="text/html; charset=us-ascii">
   <LINK REL="Previous"  HREF="000988.html">
   <LINK REL="Next"  HREF="000992.html">
 </HEAD>
 <BODY BGCOLOR="#ffffff">
   <H1>[Linux-uvc-devel] Trouble recording from two webcams</H1>
    <B>Martin Rubli</B> 
    <A HREF="mailto:linux-uvc-devel%40lists.berlios.de?Subject=Re%3A%20%5BLinux-uvc-devel%5D%20Trouble%20recording%20from%20two%20webcams&In-Reply-To=%3Cop.tiy7enbr42iof8%40misha%3E"
       TITLE="[Linux-uvc-devel] Trouble recording from two webcams">linux at rubli.info
       </A><BR>
    <I>Mon Nov 13 23:29:01 CET 2006</I>
    <P><UL>
        <LI>Previous message: <A HREF="000988.html">[Linux-uvc-devel] Trouble recording from two webcams
</A></li>
        <LI>Next message: <A HREF="000992.html">[Linux-uvc-devel] Trouble recording from two webcams
</A></li>
         <LI> <B>Messages sorted by:</B> 
              <a href="date.html#989">[ date ]</a>
              <a href="thread.html#989">[ thread ]</a>
              <a href="subject.html#989">[ subject ]</a>
              <a href="author.html#989">[ author ]</a>
         </LI>
       </UL>
    <HR>  
<!--beginarticle-->
<PRE>On Mon, 13 Nov 2006 23:04:40 +0100, Vidar Normann &lt;<A HREF="https://lists.berlios.de/mailman/listinfo/linux-uvc-devel">vidarno at gmail.com</A>&gt;  
wrote:

&gt;<i> I reran both commands:
</I>&gt;<i> ffmpeg -vd &quot;/dev/video1&quot; -an -vcodec mpeg4 -s 320x240 -r 5 -y &quot;test2.avi&quot;
</I>&gt;<i> FFmpeg version SVN-r7012, Copyright (c) 2000-2006 Fabrice Bellard, et al.
</I>&gt;<i>   configuration:  --enable-xvid --enable-gpl
</I>&gt;<i>   libavutil version: 49.0.2
</I>&gt;<i>   libavcodec version: 51.25.0
</I>&gt;<i>   libavformat version: 51.6.0
</I>&gt;<i>   built on Nov 13 2006 15:34:26, gcc: 3.3.5 (Debian 1:3.3.5-13)
</I>&gt;<i> [video4linux2 @ 0x83a81f0][4]Capabilities: 4000001
</I>&gt;<i> The V4L2 driver changed the video from 320x240 to 1024x576
</I>&gt;<i> Input #0, video4linux2, from '':
</I>&gt;<i>   Duration: N/A, bitrate: N/A
</I>&gt;<i>   Stream #0.0: Video: rawvideo, yuv422, 1024x576, 47185 kb/s,  5.00  
</I>&gt;<i> fps(r)
</I>&gt;<i> PIX_FMT_YUV420P will be used as an intermediate format for rescaling
</I>&gt;<i> Output #0, avi, to 'test2.avi':
</I>&gt;<i>   Stream #0.0: Video: mpeg4, yuv420p, 320x240, q=2-31, 200 kb/s,   
</I>&gt;<i> 5.00fps(c)
</I>&gt;<i> Stream mapping:
</I>&gt;<i>   Stream #0.0 -&gt; #0.0
</I>&gt;<i> Press [q] to stop encoding
</I>&gt;<i> frame=   80 q=2.0 Lsize=     221kB time=16.0 bitrate= 113.0kbits/s
</I>&gt;<i> video:213kB audio:0kB global headers:0kB muxing overhead 3.500250%
</I>&gt;<i>
</I>&gt;<i> --
</I>&gt;<i> So far so good, it records until I press 'q', the problem arises when I  
</I>&gt;<i> try
</I>&gt;<i> to record from the other
</I>&gt;<i> webcam as well:
</I>&gt;<i> --
</I>&gt;<i> ffmpeg -vd &quot;/dev/video0&quot; -an -vcodec mpeg4 -s 320x240 -r 5 -y &quot;test1.avi&quot;
</I>&gt;<i> FFmpeg version SVN-r7012, Copyright (c) 2000-2006 Fabrice Bellard, et al.
</I>&gt;<i>   configuration:  --enable-xvid --enable-gpl
</I>&gt;<i>   libavutil version: 49.0.2
</I>&gt;<i>   libavcodec version: 51.25.0
</I>&gt;<i>   libavformat version: 51.6.0
</I>&gt;<i>   built on Nov 13 2006 15:34:26, gcc: 3.3.5 (Debian 1:3.3.5-13)
</I>&gt;<i> [video4linux2 @ 0x83a81f0][4]Capabilities: 4000001
</I>&gt;<i> The V4L2 driver changed the video from 320x240 to 1024x576
</I>&gt;<i> ioctl(VIDIOC_STREAMON): No space left on device
</I>&gt;<i> Could not find video grab device
</I>&gt;<i> --
</I>&gt;<i>
</I>&gt;<i> The thing that I notice is the third last line, seems the v4l2-driver  
</I>&gt;<i> forces transfer in a 1024x576
</I>&gt;<i> resolution? Other than that, I have no idea and I don't know what to do.
</I>
That looks weird, indeed. The UVC driver doesn't do that, however. Maybe  
there's something wrong in the way that ffmpeg tries to set the  
resolution. I'll try to have a look at the ffmpeg source code tomorrow.

In the meantime, could you check whether you can stream with two  
simultaneously running instances of luvcview and, if so, at what  
resolutions?

Cheers,
Martin

</PRE>

<!--endarticle-->
    <HR>
    <P><UL>
        <!--threads-->
	<LI>Previous message: <A HREF="000988.html">[Linux-uvc-devel] Trouble recording from two webcams
</A></li>
	<LI>Next message: <A HREF="000992.html">[Linux-uvc-devel] Trouble recording from two webcams
</A></li>
         <LI> <B>Messages sorted by:</B> 
              <a href="date.html#989">[ date ]</a>
              <a href="thread.html#989">[ thread ]</a>
              <a href="subject.html#989">[ subject ]</a>
              <a href="author.html#989">[ author ]</a>
         </LI>
       </UL>

<hr>
<a href="https://lists.berlios.de/mailman/listinfo/linux-uvc-devel">More information about the Linux-uvc-devel
mailing list</a><br>
</body></html>
